<mxfile host="diagrams.mfellner.com" agent="Mozilla/5.0 (X11; Linux x86_64; rv:135.0) Gecko/20100101 Firefox/135.0" scale="1" border="0" version="24.7.5">
  <diagram id="C5RBs43oDa-KdzZeNtuy" name="Page-1">
    <mxGraphModel dx="2074" dy="1149" grid="1" gridSize="10" guides="1" tooltips="1" connect="1" arrows="1" fold="1" page="1" pageScale="1" pageWidth="827" pageHeight="1169" math="0" shadow="0">
      <root>
        <mxCell id="WIyWlLk6GJQsqaUBKTNV-0" />
        <mxCell id="WIyWlLk6GJQsqaUBKTNV-1" parent="WIyWlLk6GJQsqaUBKTNV-0" />
        <mxCell id="zkfFHV4jXpPFQw0GAbJ--0" value="Accommodation" style="swimlane;fontStyle=2;align=center;verticalAlign=top;childLayout=stackLayout;horizontal=1;startSize=26;horizontalStack=0;resizeParent=1;resizeLast=0;collapsible=1;marginBottom=0;rounded=0;shadow=0;strokeWidth=1;fillColor=#d5e8d4;strokeColor=#82b366;" parent="WIyWlLk6GJQsqaUBKTNV-1" vertex="1">
          <mxGeometry x="10" y="26" width="370" height="292" as="geometry">
            <mxRectangle x="230" y="140" width="160" height="26" as="alternateBounds" />
          </mxGeometry>
        </mxCell>
        <mxCell id="zkfFHV4jXpPFQw0GAbJ--1" value="- id : Long (Auto-generated)&#xa;&#xa;" style="text;align=left;verticalAlign=top;spacingLeft=4;spacingRight=4;overflow=hidden;rotatable=0;points=[[0,0.5],[1,0.5]];portConstraint=eastwest;" parent="zkfFHV4jXpPFQw0GAbJ--0" vertex="1">
          <mxGeometry y="26" width="370" height="26" as="geometry" />
        </mxCell>
        <mxCell id="zkfFHV4jXpPFQw0GAbJ--2" value="- name : String" style="text;align=left;verticalAlign=top;spacingLeft=4;spacingRight=4;overflow=hidden;rotatable=0;points=[[0,0.5],[1,0.5]];portConstraint=eastwest;rounded=0;shadow=0;html=0;" parent="zkfFHV4jXpPFQw0GAbJ--0" vertex="1">
          <mxGeometry y="52" width="370" height="26" as="geometry" />
        </mxCell>
        <mxCell id="zkfFHV4jXpPFQw0GAbJ--3" value="- type : String" style="text;align=left;verticalAlign=top;spacingLeft=4;spacingRight=4;overflow=hidden;rotatable=0;points=[[0,0.5],[1,0.5]];portConstraint=eastwest;rounded=0;shadow=0;html=0;" parent="zkfFHV4jXpPFQw0GAbJ--0" vertex="1">
          <mxGeometry y="78" width="370" height="24" as="geometry" />
        </mxCell>
        <mxCell id="lRpwmT4PMg6yvVuO-Ubb-0" value="- description : String" style="text;align=left;verticalAlign=top;spacingLeft=4;spacingRight=4;overflow=hidden;rotatable=0;points=[[0,0.5],[1,0.5]];portConstraint=eastwest;rounded=0;shadow=0;html=0;" parent="zkfFHV4jXpPFQw0GAbJ--0" vertex="1">
          <mxGeometry y="102" width="370" height="26" as="geometry" />
        </mxCell>
        <mxCell id="lRpwmT4PMg6yvVuO-Ubb-1" value="- address : Address (ManyToOne)" style="text;align=left;verticalAlign=top;spacingLeft=4;spacingRight=4;overflow=hidden;rotatable=0;points=[[0,0.5],[1,0.5]];portConstraint=eastwest;rounded=0;shadow=0;html=0;" parent="zkfFHV4jXpPFQw0GAbJ--0" vertex="1">
          <mxGeometry y="128" width="370" height="26" as="geometry" />
        </mxCell>
        <mxCell id="lRpwmT4PMg6yvVuO-Ubb-2" value="- maxGuests : int" style="text;align=left;verticalAlign=top;spacingLeft=4;spacingRight=4;overflow=hidden;rotatable=0;points=[[0,0.5],[1,0.5]];portConstraint=eastwest;rounded=0;shadow=0;html=0;" parent="zkfFHV4jXpPFQw0GAbJ--0" vertex="1">
          <mxGeometry y="154" width="370" height="26" as="geometry" />
        </mxCell>
        <mxCell id="lRpwmT4PMg6yvVuO-Ubb-3" value="- pricePerNight : double" style="text;align=left;verticalAlign=top;spacingLeft=4;spacingRight=4;overflow=hidden;rotatable=0;points=[[0,0.5],[1,0.5]];portConstraint=eastwest;rounded=0;shadow=0;html=0;" parent="zkfFHV4jXpPFQw0GAbJ--0" vertex="1">
          <mxGeometry y="180" width="370" height="26" as="geometry" />
        </mxCell>
        <mxCell id="zkfFHV4jXpPFQw0GAbJ--4" value="" style="line;html=1;strokeWidth=1;align=left;verticalAlign=middle;spacingTop=-1;spacingLeft=3;spacingRight=3;rotatable=0;labelPosition=right;points=[];portConstraint=eastwest;" parent="zkfFHV4jXpPFQw0GAbJ--0" vertex="1">
          <mxGeometry y="206" width="370" height="8" as="geometry" />
        </mxCell>
        <mxCell id="zkfFHV4jXpPFQw0GAbJ--5" value="+ Accommodation (name : String, type : String, ...) : constructor" style="text;align=left;verticalAlign=top;spacingLeft=4;spacingRight=4;overflow=hidden;rotatable=0;points=[[0,0.5],[1,0.5]];portConstraint=eastwest;" parent="zkfFHV4jXpPFQw0GAbJ--0" vertex="1">
          <mxGeometry y="214" width="370" height="26" as="geometry" />
        </mxCell>
        <mxCell id="lRpwmT4PMg6yvVuO-Ubb-4" value="+ getter &amp; setter" style="text;align=left;verticalAlign=top;spacingLeft=4;spacingRight=4;overflow=hidden;rotatable=0;points=[[0,0.5],[1,0.5]];portConstraint=eastwest;" parent="zkfFHV4jXpPFQw0GAbJ--0" vertex="1">
          <mxGeometry y="240" width="370" height="26" as="geometry" />
        </mxCell>
        <mxCell id="lRpwmT4PMg6yvVuO-Ubb-79" value="+ toString() : String" style="text;align=left;verticalAlign=top;spacingLeft=4;spacingRight=4;overflow=hidden;rotatable=0;points=[[0,0.5],[1,0.5]];portConstraint=eastwest;" parent="zkfFHV4jXpPFQw0GAbJ--0" vertex="1">
          <mxGeometry y="266" width="370" height="26" as="geometry" />
        </mxCell>
        <mxCell id="lRpwmT4PMg6yvVuO-Ubb-92" style="edgeStyle=orthogonalEdgeStyle;rounded=0;orthogonalLoop=1;jettySize=auto;html=1;exitX=0.5;exitY=0;exitDx=0;exitDy=0;entryX=0.5;entryY=1;entryDx=0;entryDy=0;" parent="WIyWlLk6GJQsqaUBKTNV-1" source="zkfFHV4jXpPFQw0GAbJ--6" target="zkfFHV4jXpPFQw0GAbJ--0" edge="1">
          <mxGeometry relative="1" as="geometry" />
        </mxCell>
        <mxCell id="zkfFHV4jXpPFQw0GAbJ--6" value="Booking" style="swimlane;fontStyle=0;align=center;verticalAlign=top;childLayout=stackLayout;horizontal=1;startSize=26;horizontalStack=0;resizeParent=1;resizeLast=0;collapsible=1;marginBottom=0;rounded=0;shadow=0;strokeWidth=1;fillColor=#d5e8d4;strokeColor=#82b366;" parent="WIyWlLk6GJQsqaUBKTNV-1" vertex="1">
          <mxGeometry x="54" y="460" width="360" height="398" as="geometry">
            <mxRectangle x="130" y="380" width="160" height="26" as="alternateBounds" />
          </mxGeometry>
        </mxCell>
        <mxCell id="zkfFHV4jXpPFQw0GAbJ--7" value="- id : Long (Auto-Generated)" style="text;align=left;verticalAlign=top;spacingLeft=4;spacingRight=4;overflow=hidden;rotatable=0;points=[[0,0.5],[1,0.5]];portConstraint=eastwest;" parent="zkfFHV4jXpPFQw0GAbJ--6" vertex="1">
          <mxGeometry y="26" width="360" height="26" as="geometry" />
        </mxCell>
        <mxCell id="lRpwmT4PMg6yvVuO-Ubb-8" value="- mainTraveler : Person (ManyToOne)" style="text;align=left;verticalAlign=top;spacingLeft=4;spacingRight=4;overflow=hidden;rotatable=0;points=[[0,0.5],[1,0.5]];portConstraint=eastwest;rounded=0;shadow=0;html=0;" parent="zkfFHV4jXpPFQw0GAbJ--6" vertex="1">
          <mxGeometry y="52" width="360" height="26" as="geometry" />
        </mxCell>
        <mxCell id="zkfFHV4jXpPFQw0GAbJ--8" value="- accommodation : Accommodation (ManyToOne)" style="text;align=left;verticalAlign=top;spacingLeft=4;spacingRight=4;overflow=hidden;rotatable=0;points=[[0,0.5],[1,0.5]];portConstraint=eastwest;rounded=0;shadow=0;html=0;" parent="zkfFHV4jXpPFQw0GAbJ--6" vertex="1">
          <mxGeometry y="78" width="360" height="26" as="geometry" />
        </mxCell>
        <mxCell id="lRpwmT4PMg6yvVuO-Ubb-16" value="- additionalGuests : List&lt;Person&gt; (ManyToMany)" style="text;align=left;verticalAlign=top;spacingLeft=4;spacingRight=4;overflow=hidden;rotatable=0;points=[[0,0.5],[1,0.5]];portConstraint=eastwest;rounded=0;shadow=0;html=0;" parent="zkfFHV4jXpPFQw0GAbJ--6" vertex="1">
          <mxGeometry y="104" width="360" height="26" as="geometry" />
        </mxCell>
        <mxCell id="lRpwmT4PMg6yvVuO-Ubb-26" value="- checkIn : LocalDateTime" style="text;align=left;verticalAlign=top;spacingLeft=4;spacingRight=4;overflow=hidden;rotatable=0;points=[[0,0.5],[1,0.5]];portConstraint=eastwest;rounded=0;shadow=0;html=0;" parent="zkfFHV4jXpPFQw0GAbJ--6" vertex="1">
          <mxGeometry y="130" width="360" height="26" as="geometry" />
        </mxCell>
        <mxCell id="lRpwmT4PMg6yvVuO-Ubb-27" value="- expectedCheckOut : LocalDateTime" style="text;align=left;verticalAlign=top;spacingLeft=4;spacingRight=4;overflow=hidden;rotatable=0;points=[[0,0.5],[1,0.5]];portConstraint=eastwest;rounded=0;shadow=0;html=0;" parent="zkfFHV4jXpPFQw0GAbJ--6" vertex="1">
          <mxGeometry y="156" width="360" height="26" as="geometry" />
        </mxCell>
        <mxCell id="lRpwmT4PMg6yvVuO-Ubb-28" value="- actualCheckOut : LocalDateTime" style="text;align=left;verticalAlign=top;spacingLeft=4;spacingRight=4;overflow=hidden;rotatable=0;points=[[0,0.5],[1,0.5]];portConstraint=eastwest;rounded=0;shadow=0;html=0;" parent="zkfFHV4jXpPFQw0GAbJ--6" vertex="1">
          <mxGeometry y="182" width="360" height="26" as="geometry" />
        </mxCell>
        <mxCell id="lRpwmT4PMg6yvVuO-Ubb-25" value="- touristTax : boolean" style="text;align=left;verticalAlign=top;spacingLeft=4;spacingRight=4;overflow=hidden;rotatable=0;points=[[0,0.5],[1,0.5]];portConstraint=eastwest;rounded=0;shadow=0;html=0;" parent="zkfFHV4jXpPFQw0GAbJ--6" vertex="1">
          <mxGeometry y="208" width="360" height="26" as="geometry" />
        </mxCell>
        <mxCell id="lRpwmT4PMg6yvVuO-Ubb-29" value="- peopleOver18 : int" style="text;align=left;verticalAlign=top;spacingLeft=4;spacingRight=4;overflow=hidden;rotatable=0;points=[[0,0.5],[1,0.5]];portConstraint=eastwest;rounded=0;shadow=0;html=0;" parent="zkfFHV4jXpPFQw0GAbJ--6" vertex="1">
          <mxGeometry y="234" width="360" height="26" as="geometry" />
        </mxCell>
        <mxCell id="zkfFHV4jXpPFQw0GAbJ--9" value="" style="line;html=1;strokeWidth=1;align=left;verticalAlign=middle;spacingTop=-1;spacingLeft=3;spacingRight=3;rotatable=0;labelPosition=right;points=[];portConstraint=eastwest;" parent="zkfFHV4jXpPFQw0GAbJ--6" vertex="1">
          <mxGeometry y="260" width="360" height="8" as="geometry" />
        </mxCell>
        <mxCell id="zkfFHV4jXpPFQw0GAbJ--10" value="+ getter &amp; setter" style="text;align=left;verticalAlign=top;spacingLeft=4;spacingRight=4;overflow=hidden;rotatable=0;points=[[0,0.5],[1,0.5]];portConstraint=eastwest;fontStyle=4" parent="zkfFHV4jXpPFQw0GAbJ--6" vertex="1">
          <mxGeometry y="268" width="360" height="26" as="geometry" />
        </mxCell>
        <mxCell id="zkfFHV4jXpPFQw0GAbJ--11" value="+ calculateTouristTax() : void" style="text;align=left;verticalAlign=top;spacingLeft=4;spacingRight=4;overflow=hidden;rotatable=0;points=[[0,0.5],[1,0.5]];portConstraint=eastwest;" parent="zkfFHV4jXpPFQw0GAbJ--6" vertex="1">
          <mxGeometry y="294" width="360" height="26" as="geometry" />
        </mxCell>
        <mxCell id="lRpwmT4PMg6yvVuO-Ubb-30" value="+ calculatePeopleOver18() : void" style="text;align=left;verticalAlign=top;spacingLeft=4;spacingRight=4;overflow=hidden;rotatable=0;points=[[0,0.5],[1,0.5]];portConstraint=eastwest;" parent="zkfFHV4jXpPFQw0GAbJ--6" vertex="1">
          <mxGeometry y="320" width="360" height="26" as="geometry" />
        </mxCell>
        <mxCell id="lRpwmT4PMg6yvVuO-Ubb-31" value="+ calculateAge() : int&#xa;" style="text;align=left;verticalAlign=top;spacingLeft=4;spacingRight=4;overflow=hidden;rotatable=0;points=[[0,0.5],[1,0.5]];portConstraint=eastwest;" parent="zkfFHV4jXpPFQw0GAbJ--6" vertex="1">
          <mxGeometry y="346" width="360" height="26" as="geometry" />
        </mxCell>
        <mxCell id="lRpwmT4PMg6yvVuO-Ubb-80" value="+ toString() : String" style="text;align=left;verticalAlign=top;spacingLeft=4;spacingRight=4;overflow=hidden;rotatable=0;points=[[0,0.5],[1,0.5]];portConstraint=eastwest;" parent="zkfFHV4jXpPFQw0GAbJ--6" vertex="1">
          <mxGeometry y="372" width="360" height="26" as="geometry" />
        </mxCell>
        <mxCell id="zkfFHV4jXpPFQw0GAbJ--17" value="Address" style="swimlane;fontStyle=0;align=center;verticalAlign=top;childLayout=stackLayout;horizontal=1;startSize=26;horizontalStack=0;resizeParent=1;resizeLast=0;collapsible=1;marginBottom=0;rounded=0;shadow=0;strokeWidth=1;fillColor=#d5e8d4;strokeColor=#82b366;" parent="WIyWlLk6GJQsqaUBKTNV-1" vertex="1">
          <mxGeometry x="640" y="26" width="250" height="294" as="geometry">
            <mxRectangle x="550" y="140" width="160" height="26" as="alternateBounds" />
          </mxGeometry>
        </mxCell>
        <mxCell id="zkfFHV4jXpPFQw0GAbJ--18" value="- id : Long (Auto-Generated)" style="text;align=left;verticalAlign=top;spacingLeft=4;spacingRight=4;overflow=hidden;rotatable=0;points=[[0,0.5],[1,0.5]];portConstraint=eastwest;" parent="zkfFHV4jXpPFQw0GAbJ--17" vertex="1">
          <mxGeometry y="26" width="250" height="26" as="geometry" />
        </mxCell>
        <mxCell id="zkfFHV4jXpPFQw0GAbJ--19" value="- city : String" style="text;align=left;verticalAlign=top;spacingLeft=4;spacingRight=4;overflow=hidden;rotatable=0;points=[[0,0.5],[1,0.5]];portConstraint=eastwest;rounded=0;shadow=0;html=0;" parent="zkfFHV4jXpPFQw0GAbJ--17" vertex="1">
          <mxGeometry y="52" width="250" height="26" as="geometry" />
        </mxCell>
        <mxCell id="1_Q6b2u7YR4gLn_ns1yN-0" value="- country : String" style="text;align=left;verticalAlign=top;spacingLeft=4;spacingRight=4;overflow=hidden;rotatable=0;points=[[0,0.5],[1,0.5]];portConstraint=eastwest;rounded=0;shadow=0;html=0;" vertex="1" parent="zkfFHV4jXpPFQw0GAbJ--17">
          <mxGeometry y="78" width="250" height="26" as="geometry" />
        </mxCell>
        <mxCell id="zkfFHV4jXpPFQw0GAbJ--20" value="- postalCode : int" style="text;align=left;verticalAlign=top;spacingLeft=4;spacingRight=4;overflow=hidden;rotatable=0;points=[[0,0.5],[1,0.5]];portConstraint=eastwest;rounded=0;shadow=0;html=0;" parent="zkfFHV4jXpPFQw0GAbJ--17" vertex="1">
          <mxGeometry y="104" width="250" height="26" as="geometry" />
        </mxCell>
        <mxCell id="zkfFHV4jXpPFQw0GAbJ--21" value="- street : String" style="text;align=left;verticalAlign=top;spacingLeft=4;spacingRight=4;overflow=hidden;rotatable=0;points=[[0,0.5],[1,0.5]];portConstraint=eastwest;rounded=0;shadow=0;html=0;" parent="zkfFHV4jXpPFQw0GAbJ--17" vertex="1">
          <mxGeometry y="130" width="250" height="26" as="geometry" />
        </mxCell>
        <mxCell id="zkfFHV4jXpPFQw0GAbJ--22" value="- houseNumber : int" style="text;align=left;verticalAlign=top;spacingLeft=4;spacingRight=4;overflow=hidden;rotatable=0;points=[[0,0.5],[1,0.5]];portConstraint=eastwest;rounded=0;shadow=0;html=0;" parent="zkfFHV4jXpPFQw0GAbJ--17" vertex="1">
          <mxGeometry y="156" width="250" height="26" as="geometry" />
        </mxCell>
        <mxCell id="lRpwmT4PMg6yvVuO-Ubb-6" value="- addressAdditional : String (opt)" style="text;align=left;verticalAlign=top;spacingLeft=4;spacingRight=4;overflow=hidden;rotatable=0;points=[[0,0.5],[1,0.5]];portConstraint=eastwest;rounded=0;shadow=0;html=0;" parent="zkfFHV4jXpPFQw0GAbJ--17" vertex="1">
          <mxGeometry y="182" width="250" height="26" as="geometry" />
        </mxCell>
        <mxCell id="zkfFHV4jXpPFQw0GAbJ--23" value="" style="line;html=1;strokeWidth=1;align=left;verticalAlign=middle;spacingTop=-1;spacingLeft=3;spacingRight=3;rotatable=0;labelPosition=right;points=[];portConstraint=eastwest;" parent="zkfFHV4jXpPFQw0GAbJ--17" vertex="1">
          <mxGeometry y="208" width="250" height="8" as="geometry" />
        </mxCell>
        <mxCell id="zkfFHV4jXpPFQw0GAbJ--24" value="+ Address (city : String, postalCode : int, ...) : constructor" style="text;align=left;verticalAlign=top;spacingLeft=4;spacingRight=4;overflow=hidden;rotatable=0;points=[[0,0.5],[1,0.5]];portConstraint=eastwest;" parent="zkfFHV4jXpPFQw0GAbJ--17" vertex="1">
          <mxGeometry y="216" width="250" height="26" as="geometry" />
        </mxCell>
        <mxCell id="zkfFHV4jXpPFQw0GAbJ--25" value="+ getter &amp; setter" style="text;align=left;verticalAlign=top;spacingLeft=4;spacingRight=4;overflow=hidden;rotatable=0;points=[[0,0.5],[1,0.5]];portConstraint=eastwest;" parent="zkfFHV4jXpPFQw0GAbJ--17" vertex="1">
          <mxGeometry y="242" width="250" height="26" as="geometry" />
        </mxCell>
        <mxCell id="lRpwmT4PMg6yvVuO-Ubb-7" value="+ toString() : String" style="text;align=left;verticalAlign=top;spacingLeft=4;spacingRight=4;overflow=hidden;rotatable=0;points=[[0,0.5],[1,0.5]];portConstraint=eastwest;" parent="zkfFHV4jXpPFQw0GAbJ--17" vertex="1">
          <mxGeometry y="268" width="250" height="26" as="geometry" />
        </mxCell>
        <mxCell id="lRpwmT4PMg6yvVuO-Ubb-32" value="Gender (ENUM)" style="swimlane;fontStyle=0;align=center;verticalAlign=top;childLayout=stackLayout;horizontal=1;startSize=26;horizontalStack=0;resizeParent=1;resizeLast=0;collapsible=1;marginBottom=0;rounded=0;shadow=0;strokeWidth=1;fillColor=#e1d5e7;strokeColor=#9673a6;" parent="WIyWlLk6GJQsqaUBKTNV-1" vertex="1">
          <mxGeometry x="982.5" y="490" width="360" height="110" as="geometry">
            <mxRectangle x="130" y="380" width="160" height="26" as="alternateBounds" />
          </mxGeometry>
        </mxCell>
        <mxCell id="lRpwmT4PMg6yvVuO-Ubb-33" value="+ MALE" style="text;align=left;verticalAlign=top;spacingLeft=4;spacingRight=4;overflow=hidden;rotatable=0;points=[[0,0.5],[1,0.5]];portConstraint=eastwest;" parent="lRpwmT4PMg6yvVuO-Ubb-32" vertex="1">
          <mxGeometry y="26" width="360" height="26" as="geometry" />
        </mxCell>
        <mxCell id="lRpwmT4PMg6yvVuO-Ubb-34" value="+ FEMALE" style="text;align=left;verticalAlign=top;spacingLeft=4;spacingRight=4;overflow=hidden;rotatable=0;points=[[0,0.5],[1,0.5]];portConstraint=eastwest;rounded=0;shadow=0;html=0;" parent="lRpwmT4PMg6yvVuO-Ubb-32" vertex="1">
          <mxGeometry y="52" width="360" height="26" as="geometry" />
        </mxCell>
        <mxCell id="lRpwmT4PMg6yvVuO-Ubb-35" value="+ DIVERSE" style="text;align=left;verticalAlign=top;spacingLeft=4;spacingRight=4;overflow=hidden;rotatable=0;points=[[0,0.5],[1,0.5]];portConstraint=eastwest;rounded=0;shadow=0;html=0;" parent="lRpwmT4PMg6yvVuO-Ubb-32" vertex="1">
          <mxGeometry y="78" width="360" height="26" as="geometry" />
        </mxCell>
        <mxCell id="lRpwmT4PMg6yvVuO-Ubb-85" style="edgeStyle=orthogonalEdgeStyle;rounded=0;orthogonalLoop=1;jettySize=auto;html=1;exitX=0.5;exitY=1;exitDx=0;exitDy=0;entryX=0.5;entryY=0;entryDx=0;entryDy=0;" parent="WIyWlLk6GJQsqaUBKTNV-1" source="lRpwmT4PMg6yvVuO-Ubb-47" target="lRpwmT4PMg6yvVuO-Ubb-32" edge="1">
          <mxGeometry relative="1" as="geometry" />
        </mxCell>
        <mxCell id="lRpwmT4PMg6yvVuO-Ubb-86" style="edgeStyle=orthogonalEdgeStyle;rounded=0;orthogonalLoop=1;jettySize=auto;html=1;exitX=0.5;exitY=1;exitDx=0;exitDy=0;entryX=0.5;entryY=0;entryDx=0;entryDy=0;" parent="WIyWlLk6GJQsqaUBKTNV-1" source="lRpwmT4PMg6yvVuO-Ubb-47" target="lRpwmT4PMg6yvVuO-Ubb-64" edge="1">
          <mxGeometry relative="1" as="geometry">
            <Array as="points">
              <mxPoint x="1163" y="410" />
              <mxPoint x="730" y="410" />
            </Array>
          </mxGeometry>
        </mxCell>
        <mxCell id="lRpwmT4PMg6yvVuO-Ubb-47" value="Person" style="swimlane;fontStyle=0;align=center;verticalAlign=top;childLayout=stackLayout;horizontal=1;startSize=26;horizontalStack=0;resizeParent=1;resizeLast=0;collapsible=1;marginBottom=0;rounded=0;shadow=0;strokeWidth=1;fillColor=#d5e8d4;strokeColor=#82b366;" parent="WIyWlLk6GJQsqaUBKTNV-1" vertex="1">
          <mxGeometry x="1020" y="26" width="285" height="330" as="geometry">
            <mxRectangle x="130" y="380" width="160" height="26" as="alternateBounds" />
          </mxGeometry>
        </mxCell>
        <mxCell id="lRpwmT4PMg6yvVuO-Ubb-48" value="- id : Long (Auto-Generated)" style="text;align=left;verticalAlign=top;spacingLeft=4;spacingRight=4;overflow=hidden;rotatable=0;points=[[0,0.5],[1,0.5]];portConstraint=eastwest;" parent="lRpwmT4PMg6yvVuO-Ubb-47" vertex="1">
          <mxGeometry y="26" width="285" height="26" as="geometry" />
        </mxCell>
        <mxCell id="lRpwmT4PMg6yvVuO-Ubb-49" value="- mainTraveler : boolean" style="text;align=left;verticalAlign=top;spacingLeft=4;spacingRight=4;overflow=hidden;rotatable=0;points=[[0,0.5],[1,0.5]];portConstraint=eastwest;rounded=0;shadow=0;html=0;" parent="lRpwmT4PMg6yvVuO-Ubb-47" vertex="1">
          <mxGeometry y="52" width="285" height="26" as="geometry" />
        </mxCell>
        <mxCell id="lRpwmT4PMg6yvVuO-Ubb-50" value="- firstName : String" style="text;align=left;verticalAlign=top;spacingLeft=4;spacingRight=4;overflow=hidden;rotatable=0;points=[[0,0.5],[1,0.5]];portConstraint=eastwest;rounded=0;shadow=0;html=0;" parent="lRpwmT4PMg6yvVuO-Ubb-47" vertex="1">
          <mxGeometry y="78" width="285" height="26" as="geometry" />
        </mxCell>
        <mxCell id="lRpwmT4PMg6yvVuO-Ubb-51" value="- lastName : String" style="text;align=left;verticalAlign=top;spacingLeft=4;spacingRight=4;overflow=hidden;rotatable=0;points=[[0,0.5],[1,0.5]];portConstraint=eastwest;rounded=0;shadow=0;html=0;" parent="lRpwmT4PMg6yvVuO-Ubb-47" vertex="1">
          <mxGeometry y="104" width="285" height="26" as="geometry" />
        </mxCell>
        <mxCell id="lRpwmT4PMg6yvVuO-Ubb-52" value="- gender : Gender (Enumeraterd type String)" style="text;align=left;verticalAlign=top;spacingLeft=4;spacingRight=4;overflow=hidden;rotatable=0;points=[[0,0.5],[1,0.5]];portConstraint=eastwest;rounded=0;shadow=0;html=0;" parent="lRpwmT4PMg6yvVuO-Ubb-47" vertex="1">
          <mxGeometry y="130" width="285" height="26" as="geometry" />
        </mxCell>
        <mxCell id="lRpwmT4PMg6yvVuO-Ubb-53" value="- birthDate : LocalDate" style="text;align=left;verticalAlign=top;spacingLeft=4;spacingRight=4;overflow=hidden;rotatable=0;points=[[0,0.5],[1,0.5]];portConstraint=eastwest;rounded=0;shadow=0;html=0;" parent="lRpwmT4PMg6yvVuO-Ubb-47" vertex="1">
          <mxGeometry y="156" width="285" height="26" as="geometry" />
        </mxCell>
        <mxCell id="lRpwmT4PMg6yvVuO-Ubb-54" value="- travelDocument : travelDocument (OneToOne)" style="text;align=left;verticalAlign=top;spacingLeft=4;spacingRight=4;overflow=hidden;rotatable=0;points=[[0,0.5],[1,0.5]];portConstraint=eastwest;rounded=0;shadow=0;html=0;" parent="lRpwmT4PMg6yvVuO-Ubb-47" vertex="1">
          <mxGeometry y="182" width="285" height="26" as="geometry" />
        </mxCell>
        <mxCell id="lRpwmT4PMg6yvVuO-Ubb-55" value="- address : Address (ManyToOne)" style="text;align=left;verticalAlign=top;spacingLeft=4;spacingRight=4;overflow=hidden;rotatable=0;points=[[0,0.5],[1,0.5]];portConstraint=eastwest;rounded=0;shadow=0;html=0;" parent="lRpwmT4PMg6yvVuO-Ubb-47" vertex="1">
          <mxGeometry y="208" width="285" height="26" as="geometry" />
        </mxCell>
        <mxCell id="lRpwmT4PMg6yvVuO-Ubb-56" value="- mainTrevelerRef : Person (ManyToOne)" style="text;align=left;verticalAlign=top;spacingLeft=4;spacingRight=4;overflow=hidden;rotatable=0;points=[[0,0.5],[1,0.5]];portConstraint=eastwest;rounded=0;shadow=0;html=0;" parent="lRpwmT4PMg6yvVuO-Ubb-47" vertex="1">
          <mxGeometry y="234" width="285" height="26" as="geometry" />
        </mxCell>
        <mxCell id="lRpwmT4PMg6yvVuO-Ubb-57" value="" style="line;html=1;strokeWidth=1;align=left;verticalAlign=middle;spacingTop=-1;spacingLeft=3;spacingRight=3;rotatable=0;labelPosition=right;points=[];portConstraint=eastwest;" parent="lRpwmT4PMg6yvVuO-Ubb-47" vertex="1">
          <mxGeometry y="260" width="285" height="8" as="geometry" />
        </mxCell>
        <mxCell id="lRpwmT4PMg6yvVuO-Ubb-58" value="+ getter &amp; setter" style="text;align=left;verticalAlign=top;spacingLeft=4;spacingRight=4;overflow=hidden;rotatable=0;points=[[0,0.5],[1,0.5]];portConstraint=eastwest;fontStyle=4" parent="lRpwmT4PMg6yvVuO-Ubb-47" vertex="1">
          <mxGeometry y="268" width="285" height="26" as="geometry" />
        </mxCell>
        <mxCell id="lRpwmT4PMg6yvVuO-Ubb-62" value="+ toString() : String" style="text;align=left;verticalAlign=top;spacingLeft=4;spacingRight=4;overflow=hidden;rotatable=0;points=[[0,0.5],[1,0.5]];portConstraint=eastwest;" parent="lRpwmT4PMg6yvVuO-Ubb-47" vertex="1">
          <mxGeometry y="294" width="285" height="26" as="geometry" />
        </mxCell>
        <mxCell id="m50Kii-da7iGsxnIqlY9-5" style="edgeStyle=orthogonalEdgeStyle;rounded=0;orthogonalLoop=1;jettySize=auto;html=1;exitX=0.5;exitY=1;exitDx=0;exitDy=0;entryX=0.5;entryY=0;entryDx=0;entryDy=0;" parent="WIyWlLk6GJQsqaUBKTNV-1" source="lRpwmT4PMg6yvVuO-Ubb-64" target="m50Kii-da7iGsxnIqlY9-0" edge="1">
          <mxGeometry relative="1" as="geometry" />
        </mxCell>
        <mxCell id="lRpwmT4PMg6yvVuO-Ubb-64" value="TravelDocument" style="swimlane;fontStyle=0;align=center;verticalAlign=top;childLayout=stackLayout;horizontal=1;startSize=26;horizontalStack=0;resizeParent=1;resizeLast=0;collapsible=1;marginBottom=0;rounded=0;shadow=0;strokeWidth=1;fillColor=#d5e8d4;strokeColor=#82b366;" parent="WIyWlLk6GJQsqaUBKTNV-1" vertex="1">
          <mxGeometry x="550" y="440" width="360" height="268" as="geometry">
            <mxRectangle x="130" y="380" width="160" height="26" as="alternateBounds" />
          </mxGeometry>
        </mxCell>
        <mxCell id="lRpwmT4PMg6yvVuO-Ubb-65" value="- id : Long (Auto-Generated)" style="text;align=left;verticalAlign=top;spacingLeft=4;spacingRight=4;overflow=hidden;rotatable=0;points=[[0,0.5],[1,0.5]];portConstraint=eastwest;" parent="lRpwmT4PMg6yvVuO-Ubb-64" vertex="1">
          <mxGeometry y="26" width="360" height="26" as="geometry" />
        </mxCell>
        <mxCell id="lRpwmT4PMg6yvVuO-Ubb-66" value="- type : TravelDocumentType" style="text;align=left;verticalAlign=top;spacingLeft=4;spacingRight=4;overflow=hidden;rotatable=0;points=[[0,0.5],[1,0.5]];portConstraint=eastwest;rounded=0;shadow=0;html=0;" parent="lRpwmT4PMg6yvVuO-Ubb-64" vertex="1">
          <mxGeometry y="52" width="360" height="26" as="geometry" />
        </mxCell>
        <mxCell id="m50Kii-da7iGsxnIqlY9-6" value="- documentNr : String" style="text;align=left;verticalAlign=top;spacingLeft=4;spacingRight=4;overflow=hidden;rotatable=0;points=[[0,0.5],[1,0.5]];portConstraint=eastwest;rounded=0;shadow=0;html=0;" parent="lRpwmT4PMg6yvVuO-Ubb-64" vertex="1">
          <mxGeometry y="78" width="360" height="26" as="geometry" />
        </mxCell>
        <mxCell id="lRpwmT4PMg6yvVuO-Ubb-67" value="- country : String" style="text;align=left;verticalAlign=top;spacingLeft=4;spacingRight=4;overflow=hidden;rotatable=0;points=[[0,0.5],[1,0.5]];portConstraint=eastwest;rounded=0;shadow=0;html=0;" parent="lRpwmT4PMg6yvVuO-Ubb-64" vertex="1">
          <mxGeometry y="104" width="360" height="26" as="geometry" />
        </mxCell>
        <mxCell id="lRpwmT4PMg6yvVuO-Ubb-68" value="- issueDate : LocalDate&#xa;" style="text;align=left;verticalAlign=top;spacingLeft=4;spacingRight=4;overflow=hidden;rotatable=0;points=[[0,0.5],[1,0.5]];portConstraint=eastwest;rounded=0;shadow=0;html=0;" parent="lRpwmT4PMg6yvVuO-Ubb-64" vertex="1">
          <mxGeometry y="130" width="360" height="26" as="geometry" />
        </mxCell>
        <mxCell id="m50Kii-da7iGsxnIqlY9-7" value="- expiryDate : LocalDate" style="text;align=left;verticalAlign=top;spacingLeft=4;spacingRight=4;overflow=hidden;rotatable=0;points=[[0,0.5],[1,0.5]];portConstraint=eastwest;rounded=0;shadow=0;html=0;" parent="lRpwmT4PMg6yvVuO-Ubb-64" vertex="1">
          <mxGeometry y="156" width="360" height="26" as="geometry" />
        </mxCell>
        <mxCell id="lRpwmT4PMg6yvVuO-Ubb-69" value="- issuingAuthority : String" style="text;align=left;verticalAlign=top;spacingLeft=4;spacingRight=4;overflow=hidden;rotatable=0;points=[[0,0.5],[1,0.5]];portConstraint=eastwest;rounded=0;shadow=0;html=0;" parent="lRpwmT4PMg6yvVuO-Ubb-64" vertex="1">
          <mxGeometry y="182" width="360" height="26" as="geometry" />
        </mxCell>
        <mxCell id="lRpwmT4PMg6yvVuO-Ubb-74" value="" style="line;html=1;strokeWidth=1;align=left;verticalAlign=middle;spacingTop=-1;spacingLeft=3;spacingRight=3;rotatable=0;labelPosition=right;points=[];portConstraint=eastwest;" parent="lRpwmT4PMg6yvVuO-Ubb-64" vertex="1">
          <mxGeometry y="208" width="360" height="8" as="geometry" />
        </mxCell>
        <mxCell id="lRpwmT4PMg6yvVuO-Ubb-75" value="+ getter &amp; setter" style="text;align=left;verticalAlign=top;spacingLeft=4;spacingRight=4;overflow=hidden;rotatable=0;points=[[0,0.5],[1,0.5]];portConstraint=eastwest;fontStyle=4" parent="lRpwmT4PMg6yvVuO-Ubb-64" vertex="1">
          <mxGeometry y="216" width="360" height="26" as="geometry" />
        </mxCell>
        <mxCell id="lRpwmT4PMg6yvVuO-Ubb-81" value="+ toString() : String" style="text;align=left;verticalAlign=top;spacingLeft=4;spacingRight=4;overflow=hidden;rotatable=0;points=[[0,0.5],[1,0.5]];portConstraint=eastwest;" parent="lRpwmT4PMg6yvVuO-Ubb-64" vertex="1">
          <mxGeometry y="242" width="360" height="26" as="geometry" />
        </mxCell>
        <mxCell id="lRpwmT4PMg6yvVuO-Ubb-87" style="edgeStyle=orthogonalEdgeStyle;rounded=0;orthogonalLoop=1;jettySize=auto;html=1;exitX=0;exitY=0.5;exitDx=0;exitDy=0;entryX=1;entryY=0.5;entryDx=0;entryDy=0;" parent="WIyWlLk6GJQsqaUBKTNV-1" source="lRpwmT4PMg6yvVuO-Ubb-52" target="zkfFHV4jXpPFQw0GAbJ--22" edge="1">
          <mxGeometry relative="1" as="geometry" />
        </mxCell>
        <mxCell id="lRpwmT4PMg6yvVuO-Ubb-89" style="edgeStyle=orthogonalEdgeStyle;rounded=0;orthogonalLoop=1;jettySize=auto;html=1;exitX=1;exitY=0.5;exitDx=0;exitDy=0;entryX=0;entryY=0.5;entryDx=0;entryDy=0;" parent="WIyWlLk6GJQsqaUBKTNV-1" source="lRpwmT4PMg6yvVuO-Ubb-0" target="zkfFHV4jXpPFQw0GAbJ--21" edge="1">
          <mxGeometry relative="1" as="geometry">
            <mxPoint x="630" y="141" as="targetPoint" />
          </mxGeometry>
        </mxCell>
        <mxCell id="lRpwmT4PMg6yvVuO-Ubb-90" style="edgeStyle=orthogonalEdgeStyle;rounded=0;orthogonalLoop=1;jettySize=auto;html=1;exitX=0.5;exitY=0;exitDx=0;exitDy=0;entryX=0.5;entryY=1;entryDx=0;entryDy=0;" parent="WIyWlLk6GJQsqaUBKTNV-1" source="zkfFHV4jXpPFQw0GAbJ--6" target="lRpwmT4PMg6yvVuO-Ubb-47" edge="1">
          <mxGeometry relative="1" as="geometry" />
        </mxCell>
        <mxCell id="m50Kii-da7iGsxnIqlY9-0" value="TravelDocumentType (ENUM)" style="swimlane;fontStyle=0;align=center;verticalAlign=top;childLayout=stackLayout;horizontal=1;startSize=26;horizontalStack=0;resizeParent=1;resizeLast=0;collapsible=1;marginBottom=0;rounded=0;shadow=0;strokeWidth=1;fillColor=#e1d5e7;strokeColor=#9673a6;" parent="WIyWlLk6GJQsqaUBKTNV-1" vertex="1">
          <mxGeometry x="550" y="750" width="360" height="130" as="geometry">
            <mxRectangle x="130" y="380" width="160" height="26" as="alternateBounds" />
          </mxGeometry>
        </mxCell>
        <mxCell id="m50Kii-da7iGsxnIqlY9-1" value="+ PASSPORT" style="text;align=left;verticalAlign=top;spacingLeft=4;spacingRight=4;overflow=hidden;rotatable=0;points=[[0,0.5],[1,0.5]];portConstraint=eastwest;" parent="m50Kii-da7iGsxnIqlY9-0" vertex="1">
          <mxGeometry y="26" width="360" height="26" as="geometry" />
        </mxCell>
        <mxCell id="m50Kii-da7iGsxnIqlY9-2" value="+ DRIVER_LICENSE" style="text;align=left;verticalAlign=top;spacingLeft=4;spacingRight=4;overflow=hidden;rotatable=0;points=[[0,0.5],[1,0.5]];portConstraint=eastwest;rounded=0;shadow=0;html=0;" parent="m50Kii-da7iGsxnIqlY9-0" vertex="1">
          <mxGeometry y="52" width="360" height="26" as="geometry" />
        </mxCell>
        <mxCell id="m50Kii-da7iGsxnIqlY9-4" value="+ IDENTITY_CARD" style="text;align=left;verticalAlign=top;spacingLeft=4;spacingRight=4;overflow=hidden;rotatable=0;points=[[0,0.5],[1,0.5]];portConstraint=eastwest;rounded=0;shadow=0;html=0;" parent="m50Kii-da7iGsxnIqlY9-0" vertex="1">
          <mxGeometry y="78" width="360" height="22" as="geometry" />
        </mxCell>
        <mxCell id="m50Kii-da7iGsxnIqlY9-3" value="+ OTHER" style="text;align=left;verticalAlign=top;spacingLeft=4;spacingRight=4;overflow=hidden;rotatable=0;points=[[0,0.5],[1,0.5]];portConstraint=eastwest;rounded=0;shadow=0;html=0;" parent="m50Kii-da7iGsxnIqlY9-0" vertex="1">
          <mxGeometry y="100" width="360" height="26" as="geometry" />
        </mxCell>
        <mxCell id="1_Q6b2u7YR4gLn_ns1yN-18" style="edgeStyle=orthogonalEdgeStyle;rounded=0;orthogonalLoop=1;jettySize=auto;html=1;exitX=0.5;exitY=1;exitDx=0;exitDy=0;entryX=0.5;entryY=0;entryDx=0;entryDy=0;" edge="1" parent="WIyWlLk6GJQsqaUBKTNV-1" source="1_Q6b2u7YR4gLn_ns1yN-1" target="1_Q6b2u7YR4gLn_ns1yN-13">
          <mxGeometry relative="1" as="geometry" />
        </mxCell>
        <mxCell id="1_Q6b2u7YR4gLn_ns1yN-1" value="Employee" style="swimlane;fontStyle=0;align=center;verticalAlign=top;childLayout=stackLayout;horizontal=1;startSize=26;horizontalStack=0;resizeParent=1;resizeLast=0;collapsible=1;marginBottom=0;rounded=0;shadow=0;strokeWidth=1;fillColor=#d5e8d4;strokeColor=#82b366;" vertex="1" parent="WIyWlLk6GJQsqaUBKTNV-1">
          <mxGeometry x="982.5" y="630" width="360" height="180" as="geometry">
            <mxRectangle x="130" y="380" width="160" height="26" as="alternateBounds" />
          </mxGeometry>
        </mxCell>
        <mxCell id="1_Q6b2u7YR4gLn_ns1yN-2" value="- id : Long (Auto-Generated)" style="text;align=left;verticalAlign=top;spacingLeft=4;spacingRight=4;overflow=hidden;rotatable=0;points=[[0,0.5],[1,0.5]];portConstraint=eastwest;" vertex="1" parent="1_Q6b2u7YR4gLn_ns1yN-1">
          <mxGeometry y="26" width="360" height="26" as="geometry" />
        </mxCell>
        <mxCell id="1_Q6b2u7YR4gLn_ns1yN-3" value="- username : String" style="text;align=left;verticalAlign=top;spacingLeft=4;spacingRight=4;overflow=hidden;rotatable=0;points=[[0,0.5],[1,0.5]];portConstraint=eastwest;rounded=0;shadow=0;html=0;" vertex="1" parent="1_Q6b2u7YR4gLn_ns1yN-1">
          <mxGeometry y="52" width="360" height="26" as="geometry" />
        </mxCell>
        <mxCell id="1_Q6b2u7YR4gLn_ns1yN-4" value="- password : String" style="text;align=left;verticalAlign=top;spacingLeft=4;spacingRight=4;overflow=hidden;rotatable=0;points=[[0,0.5],[1,0.5]];portConstraint=eastwest;rounded=0;shadow=0;html=0;" vertex="1" parent="1_Q6b2u7YR4gLn_ns1yN-1">
          <mxGeometry y="78" width="360" height="26" as="geometry" />
        </mxCell>
        <mxCell id="1_Q6b2u7YR4gLn_ns1yN-5" value="- roles : List&lt;Roles&gt;" style="text;align=left;verticalAlign=top;spacingLeft=4;spacingRight=4;overflow=hidden;rotatable=0;points=[[0,0.5],[1,0.5]];portConstraint=eastwest;rounded=0;shadow=0;html=0;" vertex="1" parent="1_Q6b2u7YR4gLn_ns1yN-1">
          <mxGeometry y="104" width="360" height="26" as="geometry" />
        </mxCell>
        <mxCell id="1_Q6b2u7YR4gLn_ns1yN-9" value="" style="line;html=1;strokeWidth=1;align=left;verticalAlign=middle;spacingTop=-1;spacingLeft=3;spacingRight=3;rotatable=0;labelPosition=right;points=[];portConstraint=eastwest;" vertex="1" parent="1_Q6b2u7YR4gLn_ns1yN-1">
          <mxGeometry y="130" width="360" height="8" as="geometry" />
        </mxCell>
        <mxCell id="1_Q6b2u7YR4gLn_ns1yN-10" value="+ getter &amp; setter" style="text;align=left;verticalAlign=top;spacingLeft=4;spacingRight=4;overflow=hidden;rotatable=0;points=[[0,0.5],[1,0.5]];portConstraint=eastwest;fontStyle=4" vertex="1" parent="1_Q6b2u7YR4gLn_ns1yN-1">
          <mxGeometry y="138" width="360" height="26" as="geometry" />
        </mxCell>
        <mxCell id="1_Q6b2u7YR4gLn_ns1yN-13" value="Roles (ENUM)" style="swimlane;fontStyle=0;align=center;verticalAlign=top;childLayout=stackLayout;horizontal=1;startSize=26;horizontalStack=0;resizeParent=1;resizeLast=0;collapsible=1;marginBottom=0;rounded=0;shadow=0;strokeWidth=1;fillColor=#e1d5e7;strokeColor=#9673a6;" vertex="1" parent="WIyWlLk6GJQsqaUBKTNV-1">
          <mxGeometry x="982.5" y="850" width="360" height="110" as="geometry">
            <mxRectangle x="130" y="380" width="160" height="26" as="alternateBounds" />
          </mxGeometry>
        </mxCell>
        <mxCell id="1_Q6b2u7YR4gLn_ns1yN-14" value="+ ADMIN" style="text;align=left;verticalAlign=top;spacingLeft=4;spacingRight=4;overflow=hidden;rotatable=0;points=[[0,0.5],[1,0.5]];portConstraint=eastwest;" vertex="1" parent="1_Q6b2u7YR4gLn_ns1yN-13">
          <mxGeometry y="26" width="360" height="26" as="geometry" />
        </mxCell>
        <mxCell id="1_Q6b2u7YR4gLn_ns1yN-15" value="+ DEVELOPER" style="text;align=left;verticalAlign=top;spacingLeft=4;spacingRight=4;overflow=hidden;rotatable=0;points=[[0,0.5],[1,0.5]];portConstraint=eastwest;rounded=0;shadow=0;html=0;" vertex="1" parent="1_Q6b2u7YR4gLn_ns1yN-13">
          <mxGeometry y="52" width="360" height="26" as="geometry" />
        </mxCell>
        <mxCell id="1_Q6b2u7YR4gLn_ns1yN-16" value="+ EMPLOYEE" style="text;align=left;verticalAlign=top;spacingLeft=4;spacingRight=4;overflow=hidden;rotatable=0;points=[[0,0.5],[1,0.5]];portConstraint=eastwest;rounded=0;shadow=0;html=0;" vertex="1" parent="1_Q6b2u7YR4gLn_ns1yN-13">
          <mxGeometry y="78" width="360" height="22" as="geometry" />
        </mxCell>
      </root>
    </mxGraphModel>
  </diagram>
</mxfile>
